<svg xmlns="http://www.w3.org/2000/svg" width="161.938" height="63.907" viewBox="0 0 161.938 63.907" fill="#fff">
    <path d="M304.033,393.717a2.469,2.469,0,0,0-3.342.927,2.42,2.42,0,0,0,.933,3.311l24.922,13.887V438.17l-23.718,13.218L279.11,438.17V409l-28.625-15.953L221.86,409v29.17l-23.718,13.218L174.423,438.17V410.421a2.454,2.454,0,0,0-4.907,0v30.592l28.626,15.952,26.171-14.585,26.172,14.585,26.171-14.585,26.172,14.585,28.625-15.952V409ZM226.767,438.17V411.842l23.718-13.217L274.2,411.842V438.17l-23.718,13.218Zm-28.624.782a3.036,3.036,0,0,0,2.237-.817,2.979,2.979,0,0,0,.824-2.215V414.1a2.928,2.928,0,0,0-.824-2.177,3.474,3.474,0,0,0-4.476,0,2.925,2.925,0,0,0-.825,2.177V435.92a2.976,2.976,0,0,0,.825,2.215A3.04,3.04,0,0,0,198.143,438.952Zm61.235-27.906a2.912,2.912,0,0,0-2.179.817,2.968,2.968,0,0,0-.805,2.178v13.574a7.256,7.256,0,0,1-1.531,4.959,6.456,6.456,0,0,1-8.776.019,7.305,7.305,0,0,1-1.511-4.978V414.041a2.968,2.968,0,0,0-.805-2.178,2.918,2.918,0,0,0-2.179-.817,2.983,2.983,0,0,0-2.2.817,2.932,2.932,0,0,0-.824,2.178v13.3q0,5.719,3.041,8.693t8.853,2.976q5.813,0,8.872-3t3.064-8.674v-13.3a2.929,2.929,0,0,0-.825-2.178A2.985,2.985,0,0,0,259.378,411.046Zm43.313,23.336a14.054,14.054,0,0,1-3.809-.486,13.3,13.3,0,0,1-3.415-1.535,5.322,5.322,0,0,0-1-.488,2.69,2.69,0,0,0-.843-0.136,1.784,1.784,0,0,0-1.4.739,2.85,2.85,0,0,0-.352,2.938,2.73,2.73,0,0,0,.844.913,12.106,12.106,0,0,0,4.358,2.043,22.128,22.128,0,0,0,5.769.718,15.219,15.219,0,0,0,5.869-1.049,8.99,8.99,0,0,0,3.927-2.956,7.254,7.254,0,0,0,1.392-4.4,6.021,6.021,0,0,0-2.335-5.018q-2.334-1.826-7.674-3a27.243,27.243,0,0,1-3.514-.972,4.423,4.423,0,0,1-1.767-1.069,2.255,2.255,0,0,1-.53-1.537,2.865,2.865,0,0,1,1.374-2.508,6.732,6.732,0,0,1,3.769-.915,9.932,9.932,0,0,1,3.435.506,16.7,16.7,0,0,1,2.965,1.516,5.572,5.572,0,0,0,1.041.507,2.686,2.686,0,0,0,.805.117,1.783,1.783,0,0,0,1.393-.739,2.612,2.612,0,0,0,.607-1.713,2.491,2.491,0,0,0-.256-1.185,3.059,3.059,0,0,0-.843-0.952,14.679,14.679,0,0,0-9.185-2.762,14.1,14.1,0,0,0-5.712,1.108,9.47,9.47,0,0,0-3.965,3.073,7.309,7.309,0,0,0-1.434,4.414,6.822,6.822,0,0,0,1,3.773,7.519,7.519,0,0,0,3.179,2.605,25.266,25.266,0,0,0,5.83,1.79,16.518,16.518,0,0,1,4.534,1.4,2.2,2.2,0,0,1,1.274,1.945,2.721,2.721,0,0,1-1.374,2.45A7.552,7.552,0,0,1,302.691,434.382Z" transform="translate(-169.531 -393.062)"/>
</svg>
