<svg viewBox="0 0 1573.1 314.9" xmlns="http://www.w3.org/2000/svg"><path d="m802.3 190c0 17.7-5.9 32.4-17.5 44-15.4 15.3-40.5 23.7-70.6 23.5-21.6-.4-43.5-5.6-55.8-13.2l8.2-43.3c13.1 7.4 36 15 53 15 14.1 0 23.5-6.5 23.5-16.9 0-9.4-6.7-16-23.7-24.3-26.9-13.4-40.3-30.5-40.3-50.6 0-39.5 33.7-66.2 84.2-66.2 26.7 0 44.1 6.3 53.8 12.5l-8.2 43.2c-7.6-5.7-27.1-13.8-48.3-13.8-14.7 0-24.3 6.2-24.3 16.5 0 7.4 7.3 14 22.9 21.6 20.2 10 43.1 25 43.1 52zm770.7 40.2c1.2-13.2-8.5-23.9-21.7-23.9s-24.8 10.7-26 23.9c-1.3 12.1 7.6 23.8 21.7 23.8 13.2.1 24.8-10.6 26-23.8zm-3.4-.3c-1 11.4-11.2 20.7-22.6 20.7-11.2 0-19.3-9-18.3-20.1 1-11.3 11.1-20.7 22.6-20.7 11.1 0 19.3 9 18.3 20.1zm-16.5 3.2 3.8 11.1h-3.7l-3.7-10.8h-5.3l-2 10.8h-3.5l5.3-28.1h9.2c4.2 0 7.4 3.1 7.5 7.1.1 3.7-2.5 8.5-7.6 9.9zm.1-13.6h-6.4l-2 10.5h5.8c3.1 0 5.8-2.4 6.6-5.6.6-2.5-1.4-4.9-4-4.9zm-103.2-6.3c23.8 0 44.3-5.8 66.7-18.8l-9.1 47.8c-27.1 13.8-58.9 15.3-71.3 15.3-52.8 0-83-29.4-83-80.7 0-29.6 10.9-59.2 29.8-81.3 20.3-24 50.3-37.8 81.7-37.6 40 0 66.6 23.2 66.6 57.7 0 15.9-5.2 29-15.4 39-19.1 18.6-66.1 29-109 20.6-1.9 24 16.3 38 43 38zm-36.7-75c33.3.3 52.1-3.1 60.3-11.2 8.9-8.8 6.1-27.7-15.8-27.7-24.5.1-40.2 20.2-44.5 38.9zm-222.8 8.2-20.5 107.1h-54.2l7-36.9c-7.6 23-26.1 41.2-57.2 41.2-37.7 0-54.8-33.5-54.8-67 0-38.1 14.9-75.8 40-100.9 21-21 48.1-32.1 78.4-32.1 53.4.2 71.1 36.3 61.3 88.6zm-52.3-24.7c-.7-13.5-7.7-20.8-20.3-20.8-26.7 0-49.9 46.1-49.8 78.2 0 20 7.4 32.5 20.3 32.5 20.7 0 38.5-21.6 44.6-53.2 2.1-10.8 5.6-28.3 5.2-36.7zm-820.2 24.7-20.5 107.2h-54.2l7-36.9c-7.6 23-26.1 41.2-57.2 41.2-37.7 0-54.8-33.5-54.8-67 0-38.1 14.9-75.8 40-100.9 21-21 48.1-32.1 78.4-32.1 53.4.1 71.1 36.2 61.3 88.5zm-52.2-24.7c-.7-13.5-7.7-20.8-20.3-20.8-26.7 0-49.9 46.1-49.8 78.2 0 20 7.4 32.5 20.4 32.5 20.7 0 38.5-21.6 44.6-53.2 1.9-10.8 5.4-28.3 5.1-36.7zm741.2 9c0 46.6-22.4 94.3-62.7 115.8-14.8 7.9-29 11.2-41.3 11.3-20.2 0-31.5-7.5-37.9-19.2l-14.4 76.2h-56.8l48.2-253.6h50l-5.8 30.8c14.1-20.6 35.1-34.3 58.7-34.3 37.6.1 62 28.6 62 73zm-59.1 4.3c0-9-2.1-30.9-22.9-30.9-21.2 0-39 24.1-45.9 60.6-2.4 12.5-9 50 17.1 50 29.8 0 51.7-42.3 51.7-79.7zm-868.8-31 8.1-42.6h-50l-37.2 195.5h56.8l15.3-80.6c9-47.5 36.3-66.6 75.1-60.7l11.1-58.3c-33.6-3.1-65.6 15.7-79.2 46.7zm455.5 149.5 19.6-102.9 40.3 102.9h61.1l-41.7-103.7 75.8-88.5h-62l-73.2 87.5 28.3-148.8h-56.4l-48.2 253.5zm790-195.3c-71.2 0-124.8 52-124.8 120.9 0 47.6 31.6 78.3 80.7 78.3 21 0 41.4-3.8 54.5-10.2l9-47.5c-17.6 8.7-31.3 12.3-47.5 12.3-17.9 0-37.2-10.3-37.2-39.1 0-34 24.1-69.2 64.5-69.2 12.2 0 22.5 2.4 31.3 7.5l8.8-46.2c-10.1-4.3-24.8-6.8-39.3-6.8zm-872.5 0c-71.2 0-124.8 52-124.8 120.9 0 47.6 31.6 78.3 80.7 78.3 21 0 41.4-3.8 54.5-10.2l9-47.5c-17.6 8.7-31.3 12.3-47.5 12.3-17.9 0-37.2-10.3-37.2-39.1 0-34 24.1-69.2 64.5-69.2 12.2 0 22.5 2.4 31.3 7.5l8.8-46.2c-10.2-4.3-24.9-6.8-39.3-6.8z" fill="#eb0000"/></svg>